<?xml version="1.0" encoding="iso-8859-1"?>
<!-- Generator: Adobe Illustrator 19.0.0, SVG Export Plug-In . SVG Version: 6.00 Build 0)  -->
<svg version="1.1" id="Layer_1" xmlns="http://www.w3.org/2000/svg" xmlns:xlink="http://www.w3.org/1999/xlink" x="0px" y="0px"
	 viewBox="0 0 485 485" style="enable-background:new 0 0 485 485;" xml:space="preserve">
<g>
	<path d="M276.136,366.601l15.45-62.561c4.146-17.071,8.104-35.763,10.327-56.679h0.715c2.224,20.464,5.465,39.608,9.121,56.228
		l13.717,63.011h40.776l46.354-180.028h-47.408l-11.042,76.842c-2.941,19.56-5.277,38.289-6.332,55.362h-1.017
		c-2.223-17.828-5.578-35.352-9.271-55.663l-15.452-76.541h-37.234l-15.753,78.463c-3.241,16.771-6.934,36.669-9.874,53.742h-1.168
		c-1.47-17.073-3.693-35.049-6.218-54.647l-9.535-77.558h-51.668l44.282,180.028H276.136z"/>
	<polygon points="120.68,264.283 176.605,264.283 176.605,224.109 120.68,224.109 120.68,160.381 180.299,160.381 180.299,118.399 
		72.403,118.399 72.403,366.601 120.68,366.601 	"/>
	<path d="M0,0v485h485V0H0z M455,455H30V30h425V455z"/>
</g>
<g>
</g>
<g>
</g>
<g>
</g>
<g>
</g>
<g>
</g>
<g>
</g>
<g>
</g>
<g>
</g>
<g>
</g>
<g>
</g>
<g>
</g>
<g>
</g>
<g>
</g>
<g>
</g>
<g>
</g>
</svg>
