<?xml version="1.0" encoding="iso-8859-1"?>
<!-- Generator: Adobe Illustrator 19.0.0, SVG Export Plug-In . SVG Version: 6.00 Build 0)  -->
<svg version="1.1" id="Capa_1" xmlns="http://www.w3.org/2000/svg" xmlns:xlink="http://www.w3.org/1999/xlink" x="0px" y="0px"
	 viewBox="0 0 512 512" style="enable-background:new 0 0 512 512;" xml:space="preserve">
<g>
	<g>
		<g>
			<path d="M332.538,269L332.538,269C332.535,269.033,332.537,269.017,332.538,269z"/>
			<path d="M399.593,0H112.407C100.327,0,90.5,9.828,90.5,21.908v196.185c0,12.08,9.827,21.908,21.907,21.908H123.5v10.922
				c0,9.968,8.109,18.078,18.078,18.078h39.886l9.206,94.381c0.002,0.018,0-0.001,0.002,0.018c0.007,0.064,0.014,0.128,0.021,0.192
				c0.463,3.748,2.727,7.052,6.054,8.838c3.327,1.786,7.331,1.846,10.713,0.16l19.606-9.778l5.434,2.488V497H196
				c-4.143,0-7.5,3.358-7.5,7.5c0,4.142,3.357,7.5,7.5,7.5h123c4.143,0,7.5-3.358,7.5-7.5c0-4.142-3.357-7.5-7.5-7.5h-37.5V362.715
				l4.134-2.507l20.354,11.684c3.393,1.948,7.508,2.067,11.009,0.318c3.501-1.749,5.878-5.112,6.357-8.996
				c0.008-0.064,0.015-0.128,0.021-0.192L332.538,269c0.003-0.034,0.002-0.017,0,0h39.884c9.969,0,18.078-8.11,18.078-18.078V240
				h9.093c12.08,0,21.907-9.828,21.907-21.908V21.908C421.5,9.828,411.673,0,399.593,0z M141.578,254
				c-1.697,0-3.078-1.381-3.078-3.078V240h35v2.013c0,4.769,2.583,8.945,6.424,11.203L180,254H141.578z M173.501,222.987V224H159
				V123.965c0-3.841,3.125-6.965,6.966-6.965h16.888c-3.456,8.839-5.354,18.452-5.354,28.5c0,26.689,13.388,50.31,33.802,64.5
				h-24.814C179.327,210,173.501,215.826,173.501,222.987z M248.5,118.643V138h-55.559c1.571-13.297,7.268-25.349,15.771-34.837
				C220.296,111.918,234.041,117.265,248.5,118.643z M220.292,93.016c8.229-5.616,17.84-9.35,28.208-10.575v21.118
				C238.366,102.361,228.707,98.747,220.292,93.016z M248.5,153v19.359c-14.426,1.384-28.209,6.737-39.787,15.479
				c-8.504-9.488-14.201-21.54-15.772-34.838H248.5z M248.5,187.445v21.114c-10.367-1.225-19.977-4.958-28.205-10.573
				C228.709,192.264,238.388,188.647,248.5,187.445z M195.553,258.925L195.268,256h35.566l8.311,4.304l-24.975,8.22L195.553,258.925
				z M232.863,278.163l24.925-8.203l27.391,14.185l-24.711,8.252L232.863,278.163z M280.005,319.346l-27.407,9.203l-20.792-10.767
				l27.412-9.154L280.005,319.346z M199.671,301.14l-1.139-11.678l14.353-4.724l27.718,14.292l-27.362,9.137L199.671,301.14z
				 M205.46,344.377c-0.537,0.18-1.039,0.416-1.504,0.697l-1.7-17.424l9.719-3.245l20.834,10.79L205.46,344.377z M266.501,497H266.5
				h-19V372.169l4.877,2.233c1.547,0.708,3.202,1.06,4.853,1.06c2.1,0,4.191-0.568,6.042-1.691l3.229-1.958V497z M257.01,360.026
				l-21.588-9.886l15.923-5.347l16.603,8.599L257.01,360.026z M308.96,356.302l-17.571-10.086c-2.289-1.314-4.912-1.789-7.441-1.43
				l-12.815-6.637l27.457-9.219l12.414,6.401L308.96,356.302z M313.662,308.044l-13.835,4.646l-20.744-10.695l24.662-8.236
				l10.766,5.575L313.662,308.044z M317.027,273.51l-12.017,4.013l-27.279-14.127L300.202,256h18.531L317.027,273.51z M325.5,240
				h-137v-15h137V240z M303.288,103.163c8.503,9.488,14.2,21.54,15.771,34.837H263.5v-19.357
				C277.959,117.264,291.704,111.918,303.288,103.163z M263.5,103.559V82.441c10.368,1.225,19.979,4.958,28.208,10.575
				C283.293,98.747,273.634,102.361,263.5,103.559z M319.059,153c-1.571,13.297-7.268,25.349-15.77,34.836
				c-11.585-8.755-25.33-14.101-39.789-15.48V153H319.059z M291.708,197.984c-8.229,5.616-17.84,9.35-28.208,10.575v-21.118
				C273.634,188.639,283.293,192.253,291.708,197.984z M375.5,250.922c0,1.697-1.381,3.078-3.078,3.078H334l0.076-0.784
				c3.841-2.258,6.424-6.435,6.424-11.203V240h35V250.922z M406.5,218.092L406.5,218.092c0,3.809-3.099,6.908-6.907,6.908H368
				v-23.892c0-4.142-3.357-7.5-7.5-7.5s-7.5,3.358-7.5,7.5V224h-12.5v-1.013c0-7.161-5.826-12.987-12.987-12.987h-26.814
				c2.638-1.833,5.158-3.824,7.547-5.959c0.391-0.288,0.76-0.618,1.099-0.991c0.017-0.019,0.033-0.038,0.05-0.057
				c15.435-14.344,25.105-34.81,25.105-57.493c0-10.048-1.898-19.661-5.354-28.5h16.888c3.841,0,6.966,3.125,6.966,6.965v23.773
				c0,4.142,3.357,7.5,7.5,7.5s7.5-3.358,7.5-7.5v-23.773c0-12.112-9.854-21.965-21.966-21.965h-24.717
				c-3.423-5.124-7.433-9.824-11.933-14.004c-0.014-0.015-0.027-0.031-0.042-0.047c-0.338-0.371-0.704-0.699-1.093-0.986
				C294.362,74.553,276.047,67,256,67s-38.363,7.554-52.251,19.964c-0.388,0.287-0.755,0.615-1.092,0.986
				c-0.014,0.015-0.028,0.031-0.042,0.047c-4.499,4.18-8.509,8.88-11.933,14.004h-24.717C153.854,102,144,111.854,144,123.965V225
				h-31.593c-3.809,0-6.907-3.099-6.907-6.908V21.908c0-3.809,3.099-6.908,6.907-6.908h287.186c3.809,0,6.907,3.099,6.907,6.908
				V218.092z"/>
		</g>
	</g>
</g>
<g>
</g>
<g>
</g>
<g>
</g>
<g>
</g>
<g>
</g>
<g>
</g>
<g>
</g>
<g>
</g>
<g>
</g>
<g>
</g>
<g>
</g>
<g>
</g>
<g>
</g>
<g>
</g>
<g>
</g>
</svg>
