<?xml version="1.0" encoding="iso-8859-1"?>
<!-- Generator: Adobe Illustrator 19.0.0, SVG Export Plug-In . SVG Version: 6.00 Build 0)  -->
<svg version="1.1" id="Layer_1" xmlns="http://www.w3.org/2000/svg" xmlns:xlink="http://www.w3.org/1999/xlink" x="0px" y="0px"
	 viewBox="0 0 512 512" style="enable-background:new 0 0 512 512;" xml:space="preserve">
<g>
	<g>
		<path d="M502.846,124.439L388.693,11.366c-5.865-5.81-13.661-9.01-21.95-9.01c-6.467,0-12.677,1.964-17.959,5.681l-97.968,68.948
			c-7.487,5.272-12.222,13.503-12.991,22.578c-0.441,5.203,0.455,10.345,2.515,15c-2.435,1.282-4.694,2.925-6.7,4.912
			c-5.326,5.274-8.258,12.294-8.258,19.763c0,0.165,0.017,0.327,0.02,0.493c-0.193-0.004-0.383-0.015-0.577-0.015
			c-7.493,0-14.54,2.894-19.842,8.148c-5.327,5.272-8.26,12.29-8.261,19.759c-0.001,4.857,1.245,9.519,3.577,13.639L96.383,233.709
			c-4.889,2.47-8.596,6.657-10.435,11.783L1.233,481.288c-2.766,7.698-0.789,16.398,5.033,22.166
			c4.03,3.992,9.382,6.191,15.07,6.191c2.437,0,4.838-0.411,7.135-1.221l238.047-83.914c5.161-1.819,9.378-5.49,11.872-10.337
			l52.985-103.007c-0.003-0.002-0.006-0.004-0.009-0.005c4.174,2.351,8.905,3.609,13.832,3.609c7.492,0,14.539-2.893,19.845-8.148
			c5.324-5.273,8.255-12.291,8.255-19.758c0-0.168-0.009-0.334-0.013-0.502c0.191,0.004,0.379,0.022,0.572,0.022
			c7.493,0,14.54-2.895,19.843-8.149c2.026-2.006,3.698-4.268,5.001-6.708c3.913,1.724,8.179,2.639,12.587,2.639
			c0.865,0,1.742-0.037,2.6-0.108c9.125-0.758,17.405-5.438,22.715-12.844l69.602-97.039
			C515.054,151.844,513.639,135.132,502.846,124.439z M319.215,300.544l-54.759,106.459c-0.656,1.275-1.773,2.242-3.147,2.726
			L29.381,491.484l131.113-129.871c5.353,3.304,11.536,5.078,17.995,5.078c9.116,0,17.692-3.52,24.144-9.913
			c6.473-6.412,10.038-14.943,10.038-24.02c0-9.078-3.565-17.608-10.038-24.02c-6.453-6.393-15.028-9.913-24.144-9.913
			c-9.116,0-17.692,3.52-24.144,9.913c-6.473,6.412-10.037,14.943-10.037,24.02c0,6.389,1.772,12.504,5.075,17.802L18.153,480.546
			l82.545-229.757c0.481-1.338,1.459-2.437,2.749-3.09l107.596-54.306l114.31,113.228L319.215,300.544z M159.981,332.758
			c0-4.863,1.915-9.439,5.395-12.886c3.499-3.465,8.156-5.374,13.114-5.374c4.958,0,9.615,1.909,13.114,5.374
			c3.479,3.447,5.396,8.023,5.396,12.886s-1.916,9.439-5.396,12.886c-3.499,3.465-8.156,5.375-13.114,5.375
			c-4.958,0-9.615-1.909-13.114-5.375C161.896,342.197,159.981,337.62,159.981,332.758z M354.015,295.487
			c-2.351,2.328-5.482,3.61-8.817,3.61c-3.334,0-6.467-1.282-8.817-3.609L216.007,176.252c-2.33-2.308-3.613-5.372-3.613-8.626
			c0.001-3.254,1.285-6.316,3.617-8.626c2.349-2.328,5.479-3.61,8.813-3.61c3.333,0,6.465,1.282,8.815,3.611l120.372,119.232
			c2.332,2.309,3.614,5.374,3.614,8.63C357.627,290.117,356.343,293.18,354.015,295.487z M382.672,267.098
			c-2.35,2.33-5.48,3.613-8.813,3.613c-3.334,0-6.466-1.283-8.814-3.611L244.67,147.866c-2.332-2.309-3.615-5.374-3.615-8.628
			s1.284-6.319,3.614-8.627c1.582-1.566,3.519-2.646,5.632-3.193l135.545,134.262C385.289,263.705,384.215,265.57,382.672,267.098z
			 M493.472,155.04l-24.576,34.264l-75.176-75.176c-3.061-3.059-8.022-3.059-11.083,0c-3.06,3.061-3.06,8.022,0,11.083l77,77
			l-19.223,26.801l-56.644-56.645c-3.061-3.059-8.022-3.059-11.083,0c-3.06,3.061-3.06,8.022,0,11.083l58.469,58.469l-7.288,10.16
			c-2.629,3.664-6.737,5.982-11.28,6.359c-4.482,0.37-9.032-1.275-12.205-4.418L257.871,112.857
			c-3.192-3.16-4.806-7.523-4.428-11.97c0.376-4.449,2.708-8.491,6.395-11.086l97.965-68.946c2.628-1.849,5.72-2.825,8.941-2.825
			c4.131,0,8.009,1.588,10.92,4.471l114.153,113.074C497.108,140.814,497.804,149.002,493.472,155.04z"/>
	</g>
</g>
<g>
</g>
<g>
</g>
<g>
</g>
<g>
</g>
<g>
</g>
<g>
</g>
<g>
</g>
<g>
</g>
<g>
</g>
<g>
</g>
<g>
</g>
<g>
</g>
<g>
</g>
<g>
</g>
<g>
</g>
</svg>
